<mxfile host="app.diagrams.net" modified="2021-08-03T23:07:59.151Z" agent="5.0 (Windows NT 10.0; Win64; x64) AppleWebKit/537.36 (KHTML, like Gecko) Chrome/91.0.4472.164 Safari/537.36 OPR/77.0.4054.277" etag="fyvri55Yyb-ym13DBFBH" version="14.9.4" type="github">
  <diagram id="R2lEEEUBdFMjLlhIrx00" name="Page-1">
    <mxGraphModel dx="1974" dy="1136" grid="1" gridSize="10" guides="1" tooltips="1" connect="1" arrows="1" fold="1" page="1" pageScale="1" pageWidth="850" pageHeight="1100" math="0" shadow="0" extFonts="Permanent Marker^https://fonts.googleapis.com/css?family=Permanent+Marker">
      <root>
        <mxCell id="0" />
        <mxCell id="1" parent="0" />
        <mxCell id="s8nBBbzB6NtBCQzFO3ce-1" value="Patient" style="html=1;overflow=block;blockSpacing=1;whiteSpace=wrap;swimlane;resizeParent=1;resizeParentMax=0;resizeLast=0;collapsible=0;marginBottom=0;fontStyle=0;swimlaneFillColor=#83bbe5;startSize=30;whiteSpace=wrap;fontSize=16.7;fontColor=#333333;align=center;fillColor=#83bbe5;whiteSpace=wrap;spacing=0;strokeColor=#5e5e5e;strokeOpacity=100;fillOpacity=100;rounded=1;absoluteArcSize=1;arcSize=9;strokeWidth=2.3;" vertex="1" parent="1">
          <mxGeometry x="120" y="110" width="255" height="157" as="geometry" />
        </mxCell>
        <mxCell id="s8nBBbzB6NtBCQzFO3ce-2" value="PK" style="strokeColor=none;part=1;resizeHeight=0;align=center;verticalAlign=top;spacingLeft=4;spacingRight=4;overflow=hidden;rotatable=0;points=[[0,0.5],[1,0.5]];portConstraint=eastwest;whiteSpace=wrap;swimlaneFillColor=#83bbe5;whiteSpace=wrap;fontSize=13.3;fontColor=#333333;align=center;fillColor=none;strokeOpacity=100;fillOpacity=100;whiteSpace=wrap;spacing=0;rounded=1;absoluteArcSize=1;arcSize=9;strokeWidth=2.3;" vertex="1" parent="s8nBBbzB6NtBCQzFO3ce-1">
          <mxGeometry y="30" width="42" height="23.25" as="geometry" />
        </mxCell>
        <mxCell id="s8nBBbzB6NtBCQzFO3ce-3" value="Patient_ID" style="shape=partialRectangle;top=0;right=0;bottom=0;part=1;resizeHeight=0;align=left;verticalAlign=top;spacingLeft=4;spacingRight=4;overflow=hidden;rotatable=0;points=[[0,0.5],[1,0.5]];portConstraint=eastwest;whiteSpace=wrap;swimlaneFillColor=#83bbe5;whiteSpace=wrap;fontSize=15;fontColor=#333333;align=center;fillColor=none;strokeOpacity=100;fillOpacity=100;whiteSpace=wrap;spacing=0;strokeColor=#5e5e5e;rounded=1;absoluteArcSize=1;arcSize=9;strokeWidth=2.3;" vertex="1" parent="s8nBBbzB6NtBCQzFO3ce-1">
          <mxGeometry x="42" y="30" width="118.99999999999997" height="25.5" as="geometry" />
        </mxCell>
        <mxCell id="s8nBBbzB6NtBCQzFO3ce-4" value="INT" style="shape=partialRectangle;top=0;right=0;bottom=0;part=1;resizeHeight=0;align=left;verticalAlign=top;spacingLeft=4;spacingRight=4;overflow=hidden;rotatable=0;points=[[0,0.5],[1,0.5]];portConstraint=eastwest;whiteSpace=wrap;swimlaneFillColor=#83bbe5;whiteSpace=wrap;fontSize=13.3;fontColor=#333333;align=center;fillColor=none;strokeOpacity=100;fillOpacity=100;whiteSpace=wrap;spacing=0;strokeColor=#5e5e5e;rounded=1;absoluteArcSize=1;arcSize=9;strokeWidth=2.3;" vertex="1" parent="s8nBBbzB6NtBCQzFO3ce-1">
          <mxGeometry x="160.99999999999997" y="30" width="94.00000000000003" height="23.25" as="geometry" />
        </mxCell>
        <mxCell id="s8nBBbzB6NtBCQzFO3ce-5" value="FK" style="strokeColor=none;part=1;resizeHeight=0;align=center;verticalAlign=top;spacingLeft=4;spacingRight=4;overflow=hidden;rotatable=0;points=[[0,0.5],[1,0.5]];portConstraint=eastwest;whiteSpace=wrap;swimlaneFillColor=#83bbe5;whiteSpace=wrap;fontSize=13;fillColor=none;strokeOpacity=100;fillOpacity=100;whiteSpace=wrap;spacing=0;rounded=1;absoluteArcSize=1;arcSize=9;strokeWidth=2.3;" vertex="1" parent="s8nBBbzB6NtBCQzFO3ce-1">
          <mxGeometry y="53.25" width="42" height="24" as="geometry" />
        </mxCell>
        <mxCell id="s8nBBbzB6NtBCQzFO3ce-6" value="Doctor_ID" style="shape=partialRectangle;top=0;right=0;bottom=0;part=1;resizeHeight=0;align=left;verticalAlign=top;spacingLeft=4;spacingRight=4;overflow=hidden;rotatable=0;points=[[0,0.5],[1,0.5]];portConstraint=eastwest;whiteSpace=wrap;swimlaneFillColor=#83bbe5;whiteSpace=wrap;fontSize=15.2;align=center;fillColor=none;strokeOpacity=100;fillOpacity=100;whiteSpace=wrap;spacing=0;strokeColor=#5e5e5e;rounded=1;absoluteArcSize=1;arcSize=9;strokeWidth=2.3;" vertex="1" parent="s8nBBbzB6NtBCQzFO3ce-1">
          <mxGeometry x="42" y="53.25" width="118.99999999999997" height="25.5" as="geometry" />
        </mxCell>
        <mxCell id="s8nBBbzB6NtBCQzFO3ce-7" value="INT" style="shape=partialRectangle;top=0;right=0;bottom=0;part=1;resizeHeight=0;align=left;verticalAlign=top;spacingLeft=4;spacingRight=4;overflow=hidden;rotatable=0;points=[[0,0.5],[1,0.5]];portConstraint=eastwest;whiteSpace=wrap;swimlaneFillColor=#83bbe5;whiteSpace=wrap;fontSize=13;align=center;fillColor=none;strokeOpacity=100;fillOpacity=100;whiteSpace=wrap;spacing=0;strokeColor=#5e5e5e;rounded=1;absoluteArcSize=1;arcSize=9;strokeWidth=2.3;" vertex="1" parent="s8nBBbzB6NtBCQzFO3ce-1">
          <mxGeometry x="160.99999999999997" y="53.25" width="94.00000000000003" height="24" as="geometry" />
        </mxCell>
        <mxCell id="s8nBBbzB6NtBCQzFO3ce-8" value="" style="strokeColor=none;part=1;resizeHeight=0;align=center;verticalAlign=top;spacingLeft=4;spacingRight=4;overflow=hidden;rotatable=0;points=[[0,0.5],[1,0.5]];portConstraint=eastwest;whiteSpace=wrap;swimlaneFillColor=#83bbe5;whiteSpace=wrap;fontSize=13;align=center;fillColor=none;strokeOpacity=100;fillOpacity=100;whiteSpace=wrap;spacing=0;rounded=1;absoluteArcSize=1;arcSize=9;strokeWidth=2.3;" vertex="1" parent="s8nBBbzB6NtBCQzFO3ce-1">
          <mxGeometry y="77.25" width="42" height="27.75" as="geometry" />
        </mxCell>
        <mxCell id="s8nBBbzB6NtBCQzFO3ce-9" value="Status" style="shape=partialRectangle;top=0;right=0;bottom=0;part=1;resizeHeight=0;align=left;verticalAlign=top;spacingLeft=4;spacingRight=4;overflow=hidden;rotatable=0;points=[[0,0.5],[1,0.5]];portConstraint=eastwest;whiteSpace=wrap;swimlaneFillColor=#83bbe5;whiteSpace=wrap;fontSize=15;fontColor=#333333;align=center;fillColor=none;strokeOpacity=100;fillOpacity=100;whiteSpace=wrap;spacing=0;strokeColor=#5e5e5e;rounded=1;absoluteArcSize=1;arcSize=9;strokeWidth=2.3;" vertex="1" parent="s8nBBbzB6NtBCQzFO3ce-1">
          <mxGeometry x="42" y="77.25" width="118.99999999999997" height="25.5" as="geometry" />
        </mxCell>
        <mxCell id="s8nBBbzB6NtBCQzFO3ce-10" value="VARCHAR(30)" style="shape=partialRectangle;top=0;right=0;bottom=0;part=1;resizeHeight=0;align=left;verticalAlign=top;spacingLeft=4;spacingRight=4;overflow=hidden;rotatable=0;points=[[0,0.5],[1,0.5]];portConstraint=eastwest;whiteSpace=wrap;swimlaneFillColor=#83bbe5;whiteSpace=wrap;fontSize=13.3;fontColor=#333333;align=center;fillColor=none;strokeOpacity=100;fillOpacity=100;whiteSpace=wrap;spacing=0;strokeColor=#5e5e5e;rounded=1;absoluteArcSize=1;arcSize=9;strokeWidth=2.3;" vertex="1" parent="s8nBBbzB6NtBCQzFO3ce-1">
          <mxGeometry x="160.99999999999997" y="77.25" width="94.00000000000003" height="23.25" as="geometry" />
        </mxCell>
        <mxCell id="s8nBBbzB6NtBCQzFO3ce-11" value="" style="strokeColor=none;part=1;resizeHeight=0;align=center;verticalAlign=top;spacingLeft=4;spacingRight=4;overflow=hidden;rotatable=0;points=[[0,0.5],[1,0.5]];portConstraint=eastwest;whiteSpace=wrap;swimlaneFillColor=#83bbe5;whiteSpace=wrap;fontSize=13;fillColor=none;strokeOpacity=100;fillOpacity=100;whiteSpace=wrap;spacing=0;rounded=1;absoluteArcSize=1;arcSize=9;strokeWidth=2.3;" vertex="1" parent="s8nBBbzB6NtBCQzFO3ce-1">
          <mxGeometry y="105" width="42" height="24" as="geometry" />
        </mxCell>
        <mxCell id="s8nBBbzB6NtBCQzFO3ce-12" value="Records" style="shape=partialRectangle;top=0;right=0;bottom=0;part=1;resizeHeight=0;align=left;verticalAlign=top;spacingLeft=4;spacingRight=4;overflow=hidden;rotatable=0;points=[[0,0.5],[1,0.5]];portConstraint=eastwest;whiteSpace=wrap;swimlaneFillColor=#83bbe5;whiteSpace=wrap;fontSize=13;align=center;fillColor=none;strokeOpacity=100;fillOpacity=100;whiteSpace=wrap;spacing=0;strokeColor=#5e5e5e;rounded=1;absoluteArcSize=1;arcSize=9;strokeWidth=2.3;" vertex="1" parent="s8nBBbzB6NtBCQzFO3ce-1">
          <mxGeometry x="42" y="105" width="118.99999999999997" height="24" as="geometry" />
        </mxCell>
        <mxCell id="s8nBBbzB6NtBCQzFO3ce-13" value="VARCHAR(300)" style="shape=partialRectangle;top=0;right=0;bottom=0;part=1;resizeHeight=0;align=left;verticalAlign=top;spacingLeft=4;spacingRight=4;overflow=hidden;rotatable=0;points=[[0,0.5],[1,0.5]];portConstraint=eastwest;whiteSpace=wrap;swimlaneFillColor=#83bbe5;whiteSpace=wrap;fontSize=11.8;fillColor=none;strokeOpacity=100;fillOpacity=100;whiteSpace=wrap;spacing=0;strokeColor=#5e5e5e;rounded=1;absoluteArcSize=1;arcSize=9;strokeWidth=2.3;" vertex="1" parent="s8nBBbzB6NtBCQzFO3ce-1">
          <mxGeometry x="160.99999999999997" y="105" width="94.00000000000003" height="21.75" as="geometry" />
        </mxCell>
        <mxCell id="s8nBBbzB6NtBCQzFO3ce-14" value="FK" style="strokeColor=none;part=1;resizeHeight=0;align=center;verticalAlign=top;spacingLeft=4;spacingRight=4;overflow=hidden;rotatable=0;points=[[0,0.5],[1,0.5]];portConstraint=eastwest;whiteSpace=wrap;swimlaneFillColor=#83bbe5;whiteSpace=wrap;fontSize=13;fillColor=none;strokeOpacity=100;fillOpacity=100;whiteSpace=wrap;spacing=0;rounded=1;absoluteArcSize=1;arcSize=9;strokeWidth=2.3;" vertex="1" parent="s8nBBbzB6NtBCQzFO3ce-1">
          <mxGeometry y="129" width="42" height="24" as="geometry" />
        </mxCell>
        <mxCell id="s8nBBbzB6NtBCQzFO3ce-15" value="Recipe_ID" style="shape=partialRectangle;top=0;right=0;bottom=0;part=1;resizeHeight=0;align=left;verticalAlign=top;spacingLeft=4;spacingRight=4;overflow=hidden;rotatable=0;points=[[0,0.5],[1,0.5]];portConstraint=eastwest;whiteSpace=wrap;swimlaneFillColor=#83bbe5;whiteSpace=wrap;fontSize=13;align=center;fillColor=none;strokeOpacity=100;fillOpacity=100;whiteSpace=wrap;spacing=0;strokeColor=#5e5e5e;rounded=1;absoluteArcSize=1;arcSize=9;strokeWidth=2.3;" vertex="1" parent="s8nBBbzB6NtBCQzFO3ce-1">
          <mxGeometry x="42" y="129" width="118.99999999999997" height="24" as="geometry" />
        </mxCell>
        <mxCell id="s8nBBbzB6NtBCQzFO3ce-16" value="INT" style="shape=partialRectangle;top=0;right=0;bottom=0;part=1;resizeHeight=0;align=left;verticalAlign=top;spacingLeft=4;spacingRight=4;overflow=hidden;rotatable=0;points=[[0,0.5],[1,0.5]];portConstraint=eastwest;whiteSpace=wrap;swimlaneFillColor=#83bbe5;whiteSpace=wrap;fontSize=13;align=center;fillColor=none;strokeOpacity=100;fillOpacity=100;whiteSpace=wrap;spacing=0;strokeColor=#5e5e5e;rounded=1;absoluteArcSize=1;arcSize=9;strokeWidth=2.3;" vertex="1" parent="s8nBBbzB6NtBCQzFO3ce-1">
          <mxGeometry x="160.99999999999997" y="129" width="94.00000000000003" height="24" as="geometry" />
        </mxCell>
        <mxCell id="wR4m2LSyL9cgfY_sc-Y3-31" value="Doctor" style="html=1;overflow=block;blockSpacing=1;whiteSpace=wrap;swimlane;resizeParent=1;resizeParentMax=0;resizeLast=0;collapsible=0;marginBottom=0;fontStyle=0;swimlaneFillColor=#83bbe5;startSize=30;whiteSpace=wrap;fontSize=16.7;fontColor=#333333;align=center;fillColor=#83bbe5;whiteSpace=wrap;spacing=0;strokeColor=#5e5e5e;strokeOpacity=100;fillOpacity=100;rounded=1;absoluteArcSize=1;arcSize=9;strokeWidth=2.3;" vertex="1" parent="1">
          <mxGeometry x="900" y="110" width="255" height="107" as="geometry" />
        </mxCell>
        <mxCell id="wR4m2LSyL9cgfY_sc-Y3-32" value="PK" style="strokeColor=none;part=1;resizeHeight=0;align=center;verticalAlign=top;spacingLeft=4;spacingRight=4;overflow=hidden;rotatable=0;points=[[0,0.5],[1,0.5]];portConstraint=eastwest;whiteSpace=wrap;swimlaneFillColor=#83bbe5;whiteSpace=wrap;fontSize=13.3;fontColor=#333333;align=center;fillColor=none;strokeOpacity=100;fillOpacity=100;whiteSpace=wrap;spacing=0;rounded=1;absoluteArcSize=1;arcSize=9;strokeWidth=2.3;" vertex="1" parent="wR4m2LSyL9cgfY_sc-Y3-31">
          <mxGeometry y="30" width="42" height="23.25" as="geometry" />
        </mxCell>
        <mxCell id="wR4m2LSyL9cgfY_sc-Y3-33" value="Doctor_ID" style="shape=partialRectangle;top=0;right=0;bottom=0;part=1;resizeHeight=0;align=left;verticalAlign=top;spacingLeft=4;spacingRight=4;overflow=hidden;rotatable=0;points=[[0,0.5],[1,0.5]];portConstraint=eastwest;whiteSpace=wrap;swimlaneFillColor=#83bbe5;whiteSpace=wrap;fontSize=15;fontColor=#333333;align=center;fillColor=none;strokeOpacity=100;fillOpacity=100;whiteSpace=wrap;spacing=0;strokeColor=#5e5e5e;rounded=1;absoluteArcSize=1;arcSize=9;strokeWidth=2.3;" vertex="1" parent="wR4m2LSyL9cgfY_sc-Y3-31">
          <mxGeometry x="42" y="30" width="114" height="25.5" as="geometry" />
        </mxCell>
        <mxCell id="wR4m2LSyL9cgfY_sc-Y3-34" value="INT" style="shape=partialRectangle;top=0;right=0;bottom=0;part=1;resizeHeight=0;align=left;verticalAlign=top;spacingLeft=4;spacingRight=4;overflow=hidden;rotatable=0;points=[[0,0.5],[1,0.5]];portConstraint=eastwest;whiteSpace=wrap;swimlaneFillColor=#83bbe5;whiteSpace=wrap;fontSize=13.3;fontColor=#333333;align=center;fillColor=none;strokeOpacity=100;fillOpacity=100;whiteSpace=wrap;spacing=0;strokeColor=#5e5e5e;rounded=1;absoluteArcSize=1;arcSize=9;strokeWidth=2.3;" vertex="1" parent="wR4m2LSyL9cgfY_sc-Y3-31">
          <mxGeometry x="156" y="30" width="99" height="23.25" as="geometry" />
        </mxCell>
        <mxCell id="wR4m2LSyL9cgfY_sc-Y3-35" value="FK" style="strokeColor=none;part=1;resizeHeight=0;align=center;verticalAlign=top;spacingLeft=4;spacingRight=4;overflow=hidden;rotatable=0;points=[[0,0.5],[1,0.5]];portConstraint=eastwest;whiteSpace=wrap;swimlaneFillColor=#83bbe5;whiteSpace=wrap;fontSize=13.3;fontColor=#333333;align=center;fillColor=none;strokeOpacity=100;fillOpacity=100;whiteSpace=wrap;spacing=0;rounded=1;absoluteArcSize=1;arcSize=9;strokeWidth=2.3;" vertex="1" parent="wR4m2LSyL9cgfY_sc-Y3-31">
          <mxGeometry y="53.25" width="42" height="23.25" as="geometry" />
        </mxCell>
        <mxCell id="wR4m2LSyL9cgfY_sc-Y3-36" value="Patient_ID" style="shape=partialRectangle;top=0;right=0;bottom=0;part=1;resizeHeight=0;align=left;verticalAlign=top;spacingLeft=4;spacingRight=4;overflow=hidden;rotatable=0;points=[[0,0.5],[1,0.5]];portConstraint=eastwest;whiteSpace=wrap;swimlaneFillColor=#83bbe5;whiteSpace=wrap;fontSize=15;fontColor=#333333;align=center;fillColor=none;strokeOpacity=100;fillOpacity=100;whiteSpace=wrap;spacing=0;strokeColor=#5e5e5e;rounded=1;absoluteArcSize=1;arcSize=9;strokeWidth=2.3;" vertex="1" parent="wR4m2LSyL9cgfY_sc-Y3-31">
          <mxGeometry x="42" y="53.25" width="114" height="25.5" as="geometry" />
        </mxCell>
        <mxCell id="wR4m2LSyL9cgfY_sc-Y3-37" value="INT" style="shape=partialRectangle;top=0;right=0;bottom=0;part=1;resizeHeight=0;align=left;verticalAlign=top;spacingLeft=4;spacingRight=4;overflow=hidden;rotatable=0;points=[[0,0.5],[1,0.5]];portConstraint=eastwest;whiteSpace=wrap;swimlaneFillColor=#83bbe5;whiteSpace=wrap;fontSize=13.3;fontColor=#333333;align=center;fillColor=none;strokeOpacity=100;fillOpacity=100;whiteSpace=wrap;spacing=0;strokeColor=#5e5e5e;rounded=1;absoluteArcSize=1;arcSize=9;strokeWidth=2.3;" vertex="1" parent="wR4m2LSyL9cgfY_sc-Y3-31">
          <mxGeometry x="156" y="53.25" width="99" height="23.25" as="geometry" />
        </mxCell>
        <mxCell id="wR4m2LSyL9cgfY_sc-Y3-38" value="" style="strokeColor=none;part=1;resizeHeight=0;align=center;verticalAlign=top;spacingLeft=4;spacingRight=4;overflow=hidden;rotatable=0;points=[[0,0.5],[1,0.5]];portConstraint=eastwest;whiteSpace=wrap;swimlaneFillColor=#83bbe5;whiteSpace=wrap;fontSize=13;fillColor=none;strokeOpacity=100;fillOpacity=100;whiteSpace=wrap;spacing=0;rounded=1;absoluteArcSize=1;arcSize=9;strokeWidth=2.3;" vertex="1" parent="wR4m2LSyL9cgfY_sc-Y3-31">
          <mxGeometry y="76.5" width="42" height="24" as="geometry" />
        </mxCell>
        <mxCell id="wR4m2LSyL9cgfY_sc-Y3-39" value="CertificateNo." style="shape=partialRectangle;top=0;right=0;bottom=0;part=1;resizeHeight=0;align=left;verticalAlign=top;spacingLeft=4;spacingRight=4;overflow=hidden;rotatable=0;points=[[0,0.5],[1,0.5]];portConstraint=eastwest;whiteSpace=wrap;swimlaneFillColor=#83bbe5;whiteSpace=wrap;fontSize=15.2;align=center;fillColor=none;strokeOpacity=100;fillOpacity=100;whiteSpace=wrap;spacing=0;strokeColor=#5e5e5e;rounded=1;absoluteArcSize=1;arcSize=9;strokeWidth=2.3;" vertex="1" parent="wR4m2LSyL9cgfY_sc-Y3-31">
          <mxGeometry x="42" y="76.5" width="114" height="25.5" as="geometry" />
        </mxCell>
        <mxCell id="wR4m2LSyL9cgfY_sc-Y3-40" value="VARCHAR(30)" style="shape=partialRectangle;top=0;right=0;bottom=0;part=1;resizeHeight=0;align=left;verticalAlign=top;spacingLeft=4;spacingRight=4;overflow=hidden;rotatable=0;points=[[0,0.5],[1,0.5]];portConstraint=eastwest;whiteSpace=wrap;swimlaneFillColor=#83bbe5;whiteSpace=wrap;fontSize=13;align=center;fillColor=none;strokeOpacity=100;fillOpacity=100;whiteSpace=wrap;spacing=0;strokeColor=#5e5e5e;rounded=1;absoluteArcSize=1;arcSize=9;strokeWidth=2.3;" vertex="1" parent="wR4m2LSyL9cgfY_sc-Y3-31">
          <mxGeometry x="156" y="76.5" width="99" height="24" as="geometry" />
        </mxCell>
      </root>
    </mxGraphModel>
  </diagram>
</mxfile>
